<svg xmlns="http://www.w3.org/2000/svg" viewBox="0 0 80 100">
  <!-- Dragon (currently unused) -->
  <path d="M58 80 Q72 88 68 96 Q62 98 58 90 Q56 84 58 80Z" fill="#2e7d32"/>
  <ellipse cx="38" cy="62" rx="22" ry="24" fill="#388e3c"/>
  <ellipse cx="38" cy="65" rx="14" ry="16" fill="#66bb6a" opacity=".7"/>
  <path d="M18 52 Q2 30 10 20 Q16 32 22 48Z" fill="#1b5e20" opacity=".85"/>
  <path d="M58 52 Q74 30 70 20 Q64 32 58 48Z" fill="#1b5e20" opacity=".85"/>
  <path d="M18 52 Q8 36 10 20" stroke="#2e7d32" stroke-width="1.5" fill="none"/>
  <path d="M58 52 Q72 36 70 20" stroke="#2e7d32" stroke-width="1.5" fill="none"/>
  <path d="M18 56 Q8 56 6 64 Q10 68 18 64Z" fill="#388e3c"/>
  <path d="M58 56 Q68 56 74 64 Q70 68 62 64Z" fill="#388e3c"/>
  <path d="M6 64 L3 68 M6 64 L6 69 M6 64 L9 68" stroke="#1b5e20" stroke-width="1.5" stroke-linecap="round"/>
  <path d="M74 64 L71 68 M74 64 L74 69 M74 64 L77 68" stroke="#1b5e20" stroke-width="1.5" stroke-linecap="round"/>
  <ellipse cx="38" cy="38" rx="14" ry="10" fill="#388e3c"/>
  <ellipse cx="40" cy="22" rx="18" ry="16" fill="#43a047"/>
  <ellipse cx="40" cy="30" rx="10" ry="7" fill="#4caf50"/>
  <ellipse cx="37" cy="28" rx="2.5" ry="2" fill="#1b5e20"/>
  <ellipse cx="43" cy="28" rx="2.5" ry="2" fill="#1b5e20"/>
  <ellipse cx="33" cy="19" rx="5" ry="5" fill="#fff200"/>
  <ellipse cx="47" cy="19" rx="5" ry="5" fill="#fff200"/>
  <ellipse cx="33" cy="20" rx="2.5" ry="3.5" fill="#1b5e20"/>
  <ellipse cx="47" cy="20" rx="2.5" ry="3.5" fill="#1b5e20"/>
  <path d="M30 10 Q26 2 30 6" stroke="#1b5e20" stroke-width="3" stroke-linecap="round" fill="none"/>
  <path d="M50 10 Q54 2 50 6" stroke="#1b5e20" stroke-width="3" stroke-linecap="round" fill="none"/>
  <path d="M40 34 Q50 38 58 34 Q52 40 44 38 Q50 42 54 40 Q46 46 40 42Z" fill="#ff6d00" opacity=".85"/>
</svg>
