<svg xmlns="http://www.w3.org/2000/svg" viewBox="0 0 80 100">
  <!-- Ninja -->
  <rect x="22" y="42" width="36" height="34" rx="6" fill="#1a1a2e"/>
  <rect x="24" y="72" width="12" height="18" rx="4" fill="#16213e"/>
  <rect x="44" y="72" width="12" height="18" rx="4" fill="#16213e"/>
  <rect x="8"  y="44" width="14" height="10" rx="4" fill="#1a1a2e"/>
  <rect x="58" y="44" width="14" height="10" rx="4" fill="#1a1a2e"/>
  <ellipse cx="40" cy="28" rx="18" ry="17" fill="#1a1a2e"/>
  <rect x="22" y="22" width="36" height="8" rx="2" fill="#e94560"/>
  <ellipse cx="33" cy="26" rx="4" ry="3" fill="#fff"/>
  <ellipse cx="47" cy="26" rx="4" ry="3" fill="#fff"/>
  <circle cx="34" cy="26" r="2" fill="#1a1a2e"/>
  <circle cx="48" cy="26" r="2" fill="#1a1a2e"/>
  <g transform="translate(62,48)">
    <polygon points="0,-7 2,-2 7,0 2,2 0,7 -2,2 -7,0 -2,-2" fill="#c0c0c0"/>
    <circle cx="0" cy="0" r="2" fill="#888"/>
  </g>
  <rect x="22" y="54" width="36" height="5" rx="2" fill="#e94560"/>
</svg>
