<svg xmlns="http://www.w3.org/2000/svg" viewBox="0 0 80 100">
  <!-- Mage -->
  <path d="M20 45 Q14 70 16 90 L64 90 Q66 70 60 45 Z" fill="#4b0082"/>
  <path d="M36 45 Q34 65 35 90 L45 90 Q46 65 44 45 Z" fill="#6a0dad" opacity=".5"/>
  <rect x="6"  y="45" width="16" height="9" rx="4" fill="#4b0082"/>
  <rect x="58" y="45" width="16" height="9" rx="4" fill="#4b0082"/>
  <ellipse cx="40" cy="28" rx="16" ry="16" fill="#f9c9a0"/>
  <polygon points="40,2 22,30 58,30" fill="#2d0057"/>
  <rect x="18" y="28" width="44" height="6" rx="3" fill="#4b0082"/>
  <polygon points="40,8 41.5,13 47,13 42.5,16 44,21 40,18 36,21 37.5,16 33,13 38.5,13" fill="#ffd700"/>
  <ellipse cx="34" cy="28" rx="3" ry="3.5" fill="#fff"/>
  <ellipse cx="46" cy="28" rx="3" ry="3.5" fill="#fff"/>
  <circle cx="35" cy="29" r="2" fill="#6a0dad"/>
  <circle cx="47" cy="29" r="2" fill="#6a0dad"/>
  <path d="M35 34 Q40 38 45 34" stroke="#c8a080" stroke-width="1.5" fill="none" stroke-linecap="round"/>
  <line x1="6" y1="30" x2="6" y2="54" stroke="#8b4513" stroke-width="4" stroke-linecap="round"/>
  <circle cx="6" cy="26" r="7" fill="#a855f7" opacity=".8"/>
  <circle cx="6" cy="26" r="4" fill="#e0aaff"/>
  <rect x="20" y="56" width="40" height="5" rx="2" fill="#ffd700"/>
</svg>
