<svg xmlns="http://www.w3.org/2000/svg" viewBox="0 0 80 100">
  <!-- Robot -->
  <rect x="23" y="72" width="13" height="20" rx="3" fill="#37474f"/>
  <rect x="44" y="72" width="13" height="20" rx="3" fill="#37474f"/>
  <rect x="23" y="83" width="13" height="4"  rx="1" fill="#00e5ff" opacity=".7"/>
  <rect x="44" y="83" width="13" height="4"  rx="1" fill="#00e5ff" opacity=".7"/>
  <rect x="18" y="42" width="44" height="32" rx="6" fill="#455a64"/>
  <rect x="24" y="48" width="32" height="20" rx="3" fill="#37474f"/>
  <circle cx="40" cy="58" r="7" fill="#00e5ff" opacity=".3"/>
  <circle cx="40" cy="58" r="4" fill="#00e5ff" opacity=".7"/>
  <circle cx="40" cy="58" r="2" fill="#fff"/>
  <rect x="18" y="50" width="5" height="3" rx="1" fill="#263238"/>
  <rect x="18" y="55" width="5" height="3" rx="1" fill="#263238"/>
  <rect x="57" y="50" width="5" height="3" rx="1" fill="#263238"/>
  <rect x="57" y="55" width="5" height="3" rx="1" fill="#263238"/>
  <rect x="5"  y="44" width="14" height="10" rx="5" fill="#546e7a"/>
  <rect x="61" y="44" width="14" height="10" rx="5" fill="#546e7a"/>
  <circle cx="5"  cy="49" r="4" fill="#455a64" stroke="#00e5ff" stroke-width="1"/>
  <circle cx="75" cy="49" r="4" fill="#455a64" stroke="#00e5ff" stroke-width="1"/>
  <rect x="22" y="12" width="36" height="32" rx="7" fill="#546e7a"/>
  <rect x="38" y="5"  width="4"  height="9"  rx="2" fill="#37474f"/>
  <circle cx="40" cy="4" r="4" fill="#00e5ff"/>
  <rect x="26" y="20" width="28" height="10" rx="3" fill="#1a1a2e"/>
  <ellipse cx="34" cy="25" rx="4" ry="3" fill="#00e5ff" opacity=".9"/>
  <ellipse cx="46" cy="25" rx="4" ry="3" fill="#00e5ff" opacity=".9"/>
  <rect x="28" y="34" width="24" height="6" rx="2" fill="#263238"/>
  <rect x="31" y="36" width="3"  height="2" rx="1" fill="#00e5ff" opacity=".6"/>
  <rect x="37" y="36" width="3"  height="2" rx="1" fill="#00e5ff" opacity=".6"/>
  <rect x="43" y="36" width="3"  height="2" rx="1" fill="#00e5ff" opacity=".6"/>
  <rect x="34" y="42" width="12" height="4" rx="2" fill="#37474f"/>
</svg>
